<svg width="20" height="20" viewBox="0 0 20 20" fill="none" xmlns="http://www.w3.org/2000/svg">
<path d="M12.7408 12.2308C12.6184 12.1908 11.8454 11.8423 12.3284 10.3738H12.3215C13.5808 9.07692 14.5431 6.99 14.5431 4.93538C14.5431 1.77615 12.4423 0.119995 10.0008 0.119995C7.55768 0.119995 5.46845 1.77538 5.46845 4.93538C5.46845 6.99846 6.42537 9.09384 7.69229 10.3877C8.18614 11.6831 7.30306 12.1638 7.11845 12.2315C4.56152 13.1561 1.56152 14.8415 1.56152 16.5054V17.1292C1.56152 19.3961 5.95691 19.9115 10.0246 19.9115C14.0984 19.9115 18.4384 19.3961 18.4384 17.1292V16.5054C18.4384 14.7915 15.4238 13.1192 12.7408 12.2308Z" fill="#F8F8F8"/>
</svg>
