<svg width="35" height="35" viewBox="0 0 35 35" fill="none" xmlns="http://www.w3.org/2000/svg">
<path d="M17.5 24.7917C18.2736 24.7917 19.0154 24.4844 19.5624 23.9374C20.1094 23.3904 20.4167 22.6485 20.4167 21.875C20.4167 21.1014 20.1094 20.3596 19.5624 19.8126C19.0154 19.2656 18.2736 18.9583 17.5 18.9583C16.7265 18.9583 15.9846 19.2656 15.4376 19.8126C14.8906 20.3596 14.5833 21.1014 14.5833 21.875C14.5833 22.6485 14.8906 23.3904 15.4376 23.9374C15.9846 24.4844 16.7265 24.7917 17.5 24.7917ZM26.25 11.6667C27.0236 11.6667 27.7654 11.974 28.3124 12.5209C28.8594 13.0679 29.1667 13.8098 29.1667 14.5833V29.1667C29.1667 29.9402 28.8594 30.6821 28.3124 31.2291C27.7654 31.776 27.0236 32.0833 26.25 32.0833H8.75001C7.97646 32.0833 7.2346 31.776 6.68762 31.2291C6.14063 30.6821 5.83334 29.9402 5.83334 29.1667V14.5833C5.83334 13.8098 6.14063 13.0679 6.68762 12.5209C7.2346 11.974 7.97646 11.6667 8.75001 11.6667H10.2083V8.75C10.2083 6.81612 10.9766 4.96146 12.344 3.59401C13.7115 2.22656 15.5661 1.45833 17.5 1.45833C18.4576 1.45833 19.4057 1.64693 20.2904 2.01337C21.1751 2.37981 21.9789 2.91691 22.656 3.59401C23.3331 4.2711 23.8702 5.07493 24.2366 5.95959C24.6031 6.84426 24.7917 7.79244 24.7917 8.75V11.6667H26.25ZM17.5 4.37499C16.3397 4.37499 15.2269 4.83593 14.4064 5.6564C13.5859 6.47687 13.125 7.58967 13.125 8.75V11.6667H21.875V8.75C21.875 7.58967 21.4141 6.47687 20.5936 5.6564C19.7731 4.83593 18.6603 4.37499 17.5 4.37499Z" fill="white" fill-opacity="0.44"/>
</svg>
