<svg width="35" height="35" viewBox="0 0 35 35" fill="none" xmlns="http://www.w3.org/2000/svg">
<path fill-rule="evenodd" clip-rule="evenodd" d="M4.62591 7.54249C2.91675 9.2502 2.91675 12.0006 2.91675 17.5C2.91675 22.9994 2.91675 25.7498 4.62591 27.4575C6.33362 29.1667 9.08404 29.1667 14.5834 29.1667H20.4167C25.9161 29.1667 28.6665 29.1667 30.3742 27.4575C32.0834 25.7498 32.0834 22.9994 32.0834 17.5C32.0834 12.0006 32.0834 9.2502 30.3742 7.54249C28.6665 5.83333 25.9161 5.83333 20.4167 5.83333H14.5834C9.08404 5.83333 6.33362 5.83333 4.62591 7.54249ZM18.5938 14.5833C18.5938 14.2932 18.4786 14.015 18.2735 13.8099C18.0684 13.6048 17.7902 13.4896 17.5001 13.4896C17.21 13.4896 16.9318 13.6048 16.7267 13.8099C16.5216 14.015 16.4063 14.2932 16.4063 14.5833V15.6056L15.5211 15.0952C15.2709 14.9619 14.9786 14.9311 14.7061 15.0091C14.4335 15.0871 14.2018 15.2679 14.06 15.5134C13.9182 15.7589 13.8772 16.0499 13.9457 16.325C14.0142 16.6001 14.1869 16.8379 14.4274 16.9881L15.3126 17.4985L14.4274 18.0104C14.176 18.1555 13.9925 18.3944 13.9173 18.6747C13.8421 18.9551 13.8813 19.2538 14.0263 19.5052C14.1714 19.7566 14.4103 19.9401 14.6907 20.0153C14.971 20.0905 15.2697 20.0513 15.5211 19.9062L16.4063 19.3944V20.4167C16.4063 20.7067 16.5216 20.9849 16.7267 21.1901C16.9318 21.3952 17.21 21.5104 17.5001 21.5104C17.7902 21.5104 18.0684 21.3952 18.2735 21.1901C18.4786 20.9849 18.5938 20.7067 18.5938 20.4167V19.3958L19.479 19.9062C19.7304 20.0513 20.0292 20.0905 20.3095 20.0153C20.5898 19.9401 20.8288 19.7566 20.9738 19.5052C21.1189 19.2538 21.1581 18.9551 21.0829 18.6747C21.0077 18.3944 20.8242 18.1555 20.5728 18.0104L19.6876 17.5L20.5728 16.9896C20.8242 16.8445 21.0077 16.6056 21.0829 16.3252C21.1581 16.0449 21.1189 15.7462 20.9738 15.4948C20.8288 15.2434 20.5898 15.0599 20.3095 14.9847C20.0292 14.9095 19.7304 14.9487 19.479 15.0937L18.5938 15.6042V14.5833ZM9.81904 13.4896C10.1091 13.4896 10.3873 13.6048 10.5924 13.8099C10.7976 14.015 10.9128 14.2932 10.9128 14.5833V15.6042L11.7965 15.0937C12.0479 14.9487 12.3467 14.9095 12.627 14.9847C12.9073 15.0599 13.1463 15.2434 13.2913 15.4948C13.4364 15.7462 13.4756 16.0449 13.4004 16.3252C13.3252 16.6056 13.1417 16.8445 12.8903 16.9896L12.0051 17.5L12.8903 18.0104C13.0148 18.0822 13.1239 18.1779 13.2114 18.2918C13.2989 18.4058 13.3632 18.5359 13.4004 18.6747C13.4376 18.8136 13.4472 18.9583 13.4285 19.1008C13.4097 19.2433 13.3631 19.3807 13.2913 19.5052C13.2195 19.6297 13.1239 19.7388 13.0099 19.8263C12.8959 19.9138 12.7658 19.9781 12.627 20.0153C12.4882 20.0525 12.3434 20.0621 12.2009 20.0434C12.0584 20.0247 11.921 19.9781 11.7965 19.9062L10.9128 19.3958V20.4167C10.9128 20.7067 10.7976 20.9849 10.5924 21.1901C10.3873 21.3952 10.1091 21.5104 9.81904 21.5104C9.52896 21.5104 9.25076 21.3952 9.04564 21.1901C8.84052 20.9849 8.72529 20.7067 8.72529 20.4167V19.3944L7.83862 19.9048C7.58837 20.0381 7.29614 20.0689 7.02356 19.9909C6.75098 19.9129 6.51935 19.7321 6.3775 19.4866C6.23566 19.2411 6.19468 18.9501 6.26321 18.675C6.33175 18.3999 6.50444 18.1621 6.74487 18.0119L7.63008 17.5L6.74487 16.9896C6.62039 16.9178 6.51127 16.8221 6.42375 16.7081C6.33623 16.5942 6.27201 16.464 6.23477 16.3252C6.19753 16.1864 6.18799 16.0417 6.20671 15.8992C6.22542 15.7567 6.27201 15.6193 6.34383 15.4948C6.41565 15.3703 6.51128 15.2612 6.62527 15.1737C6.73925 15.0861 6.86936 15.0219 7.00817 14.9847C7.14697 14.9474 7.29175 14.9379 7.43424 14.9566C7.57673 14.9753 7.71414 15.0219 7.83862 15.0937L8.72529 15.6056V14.5833C8.72529 14.2932 8.84052 14.015 9.04564 13.8099C9.25076 13.6048 9.52896 13.4896 9.81904 13.4896ZM26.2763 14.5833C26.2763 14.2932 26.1611 14.015 25.956 13.8099C25.7509 13.6048 25.4727 13.4896 25.1826 13.4896C24.8925 13.4896 24.6143 13.6048 24.4092 13.8099C24.2041 14.015 24.0888 14.2932 24.0888 14.5833V15.6056L23.2036 15.0952C22.9534 14.9619 22.6611 14.9311 22.3886 15.0091C22.116 15.0871 21.8844 15.2679 21.7425 15.5134C21.6007 15.7589 21.5597 16.0499 21.6282 16.325C21.6967 16.6001 21.8694 16.8379 22.1099 16.9881L22.9951 17.4985L22.1084 18.0104C21.857 18.1555 21.6735 18.3944 21.5983 18.6747C21.5231 18.9551 21.5623 19.2538 21.7074 19.5052C21.8524 19.7566 22.0914 19.9401 22.3717 20.0153C22.652 20.0905 22.9508 20.0513 23.2022 19.9062L24.0888 19.3944V20.4167C24.0888 20.7067 24.2041 20.9849 24.4092 21.1901C24.6143 21.3952 24.8925 21.5104 25.1826 21.5104C25.4727 21.5104 25.7509 21.3952 25.956 21.1901C26.1611 20.9849 26.2763 20.7067 26.2763 20.4167V19.3958L27.1615 19.9062C27.4129 20.0513 27.7117 20.0905 27.992 20.0153C28.2723 19.9401 28.5113 19.7566 28.6563 19.5052C28.8014 19.2538 28.8406 18.9551 28.7654 18.6747C28.6902 18.3944 28.5067 18.1555 28.2553 18.0104L27.3701 17.5L28.2553 16.9896C28.5067 16.8445 28.6902 16.6056 28.7654 16.3252C28.8406 16.0449 28.8014 15.7462 28.6563 15.4948C28.5113 15.2434 28.2723 15.0599 27.992 14.9847C27.7117 14.9095 27.4129 14.9487 27.1615 15.0937L26.2763 15.6042V14.5833Z" fill="white" fill-opacity="0.44"/>
</svg>
