<svg width="35" height="35" viewBox="0 0 35 35" fill="none" xmlns="http://www.w3.org/2000/svg">
<path d="M29.8769 24.9958L23.9488 19.6058C23.6685 19.3511 23.3003 19.2153 22.9218 19.227C22.5433 19.2387 22.1842 19.397 21.9202 19.6685L18.4304 23.2575C17.5904 23.0971 15.9017 22.5706 14.1633 20.8367C12.425 19.0969 11.8986 17.4037 11.7425 16.5696L15.3286 13.0783C15.6004 12.8146 15.759 12.4554 15.7707 12.0768C15.7824 11.6981 15.6463 11.3298 15.3913 11.0498L10.0027 5.12312C9.74758 4.84218 9.39296 4.67177 9.0142 4.64808C8.63543 4.62439 8.26234 4.74929 7.97418 4.99624L4.8096 7.7102C4.55747 7.96324 4.40698 8.30002 4.38668 8.65666C4.36481 9.02124 3.94772 17.6575 10.6444 24.3571C16.4865 30.1977 23.8044 30.625 25.8198 30.625C26.1144 30.625 26.2952 30.6162 26.3433 30.6133C26.6999 30.5934 27.0365 30.4422 27.2883 30.189L30.0008 27.0229C30.2488 26.7357 30.3746 26.3629 30.3514 25.9841C30.3283 25.6054 30.158 25.2507 29.8769 24.9958Z" fill="white" fill-opacity="0.44"/>
</svg>
